# WaveFront *.obj file (generated by CINEMA 4D)

mtllib ./3500000766_100X_20170328_D04_P04_Cell7_ActbSeg.tiff_6.mtl

v 6.39028978347778 13.91520023345947 -52.01229858398438
v 10.49429988861084 14.49520015716553 -57.52030181884766
v 13.84230041503906 14.78520011901855 -37.10829925537109
v 15.03030014038086 14.78520011901855 -35.16429901123047
v 14.49030017852783 15.65520000457764 -47.90829849243164
v 12.76229953765869 15.07520008087158 -56.54830169677734
v 6.82228994369507 9.27519989013672 -61.40829849243164
v 4.23028993606567 8.11520004272461 -48.44829940795898
v 15.24629974365234 14.78520011901855 -35.38029861450195
v 6.1742901802063 9.27519989013672 -56.65629959106445
v 14.92230033874512 15.65520000457764 -47.69229888916016
v 4.23028993606567 8.11520004272461 -48.2322998046875
v 6.1742901802063 8.98519992828369 -57.52030181884766
v 7.3622899055481 9.27519989013672 -62.38029861450195
v 14.59829998016357 15.65520000457764 -48.01630020141602
v 7.03829002380371 14.49520015716553 -48.88029861450195
v 14.81429958343506 14.78520011901855 -35.59629821777344
v 13.41030025482178 14.78520011901855 -37.64830017089844
v 10.49429988861084 15.07520008087158 -57.52030181884766
v 12.87030029296875 15.36520004272461 -56.54830169677734
v 7.79429006576538 9.27519989013672 -62.59629821777344
v 12.65429973602295 15.07520008087158 -56.54830169677734
v 4.12229013442993 8.11520004272461 -48.12429809570312
v 6.1742901802063 8.98519992828369 -58.06029891967773
v 10.3863000869751 14.78520011901855 -57.52030181884766
v 6.1742901802063 13.91520023345947 -52.7682991027832
v 13.41030025482178 14.78520011901855 -37.43230056762695
v 6.1742901802063 9.27519989013672 -57.95230102539062
# 28 vertices

vn 1 0 0
vn 0 0 0
vn 0 0 1
vn 0 1 0
vn -0.41803979873657 0.90575289726257 -0.06967329978943
vn 0 -1 0
vn 0 0 -1
# 7 normals

vt 0.32026806473732 0.99821311235428 0
vt 0.32026806473732 0.86891722679138 0
vt 0.16287615895271 0.66204369068146 0
vt 0.3283686041832 0.73569774627686 0
vt 0.64315241575241 0.73569774627686 0
vt 0.4857605099678 0.70983856916428 0
vt 0.3283686041832 0.8849281668663 0
vt 0.70368671417236 0.8846675157547 0
vt 0.41979432106018 0.85255640745163 0
vt 0.01759209297597 0.00178694725037 0
vt 0.00405026646331 0.99821311235428 0
vt 0.07536268234253 0.80611777305603 0
vt 0.41936314105988 0.80802345275879 0
vt 0.49330416321754 0.82455497980118 0
vt 0.60471707582474 0.80846583843231 0
vt 0.49415662884712 0.99821311235428 0
vt 0.411262601614 0.8885018825531 0
vt 0.3283686041832 0.99821311235428 0
vt 0.45402270555496 0.84898269176483 0
vt 0.61561012268066 0.82877814769745 0
vt 0.41936314105988 0.82812869548798 0
vt 0.154775634408 0.99821311235428 0
vt 0.14123380184174 0.00178694725037 0
vt 0.08346321433783 0.80611777305603 0
vt 0.16287615895271 0.9723539352417 0
vt 0.3283686041832 0.73927146196365 0
vt 0.411262601614 0.84898269176483 0
vt 0.411262601614 0.73927146196365 0
vt 0.16287615895271 0.65846997499466 0
vt 0.99594974517822 0.65792089700699 0
vt 0.75659018754959 0.61077296733856 0
# 31 texture coordinates

o 3500000766_100X_20170328_D04_P04_Cell7_ActbSeg.tiff_6
usemtl Mat
f 10/3/1 13/2/1 24/1/1
f 25/6/3 2/5/3 19/4/3
f 27/9/4 3/8/4 18/7/4
f 1/12/5 26/11/5 16/10/5
f 8/15/6 12/14/6 23/13/6
f 4/18/6 17/17/6 9/16/6
f 22/21/7 20/20/7 6/19/7
f 1/24/5 16/23/5 26/22/5
f 28/25/1 10/3/1 24/1/1
f 15/28/6 11/27/6 5/26/6
f 14/31/6 21/30/6 7/29/6

