# WaveFront *.obj file (generated by CINEMA 4D)

v -22.13158226013184 -362.5 0
v -43.52568054199219 -362.5 162.50430297851562
v -106.25 -362.5 313.9342041015625
v -206.02998352050781 -362.5 443.97000122070312
v -206.02998352050781 -362.5 -443.97000122070312
v -106.25 -362.5 -313.9342041015625
v -43.52568054199219 -362.5 -162.50430297851562
v 50.29622268676758 -187.64381408691406 0
v 26.4342098236084 -187.64381408691406 181.25
v -43.52568054199219 -187.64381408691406 350.14810180664062
v -43.52568054199219 -187.64381408691406 -350.14810180664062
v 26.4342098236084 -187.64381408691406 -181.25
v 75 0 0
v 50.29622268676758 0 187.64381408691406
v -22.13158226013184 0 362.5
v -22.13158226013184 0 -362.5
v 50.29622268676758 0 -187.64381408691406
v 50.29622268676758 187.64381408691406 0
v 26.4342098236084 187.64381408691406 181.25
v -43.52568054199219 187.64381408691406 350.14810180664062
v -43.52568054199219 187.64381408691406 -350.14810180664062
v 26.4342098236084 187.64381408691406 -181.25
v -22.13158226013184 362.5 0
v -43.52568054199219 362.5 162.50430297851562
v -106.25 362.5 313.9342041015625
v -206.02998352050781 362.5 443.97000122070312
v -206.02998352050781 362.5 -443.97000122070312
v -106.25 362.5 -313.9342041015625
v -43.52568054199219 362.5 -162.50430297851562
v -127.63904571533203 -0.00000000000007 500
v -279.0496826171875 -362.5 -500
v -279.0496826171875 -362.5 500
v -279.0496826171875 362.5 500
v -280.63504028320312 500 -369.36495971679688
v -280.63504028320312 -500 369.36495971679688
v -500 -500 -500
v -127.63904571533203 -0.00000000000002 -500
v -127.63904571533203 500 -0.00000000000002
v -127.63904571533203 -500 0
v -254.8809814453125 -500 434.57806396484375
v -399.96359252929688 500 456.993896484375
v -144.74441528320312 -500 -129.92825317382812
v -197.62214660644531 500 261.18048095703125
v -197.62214660644531 -500 -261.18048095703125
v -361.32485961914062 -428.3365478515625 500
v -333.33334350585938 405.937744140625 -500
v -361.32485961914062 428.3365478515625 500
v -500 500 500
v -236.45184326171875 500 -413.54815673828125
v -161.09185791015625 187.64381408691406 500
v -145.43806457519531 500 135.19696044921875
v -208.52809143066406 387.5 500
v -349.11810302734375 500 500
v -161.09185791015625 -187.64381408691406 -500
v -174.90086364746094 -500 333.33334350585938
v -218.10902404785156 -500 287.8795166015625
v -85.08272552490234 500 -151.36912536621094
v -163.46743774414062 191.165283203125 -500
v -98.15573883056641 -200.58476257324219 -500
v -163.46743774414062 -191.165283203125 500
v -388.81951904296875 500 -452.37786865234375
v -208.52809143066406 -387.5 -500
v -280.63504028320312 -500 -369.36495971679688
v -65.15459442138672 -0.00000000000007 500
v -144.74441528320312 -500 129.92825317382812
v -98.15573883056641 -200.58476257324219 500
v -197.62214660644531 500 -261.18048095703125
v -399.96359252929688 -500 -456.993896484375
v -333.33334350585938 -500 487.887939453125
v 21.16968727111816 -387.5 0
v -1.69986462593079 -387.5 173.71150207519531
v -68.75 -387.5 335.5848388671875
v -236.45184326171875 -500 -413.54815673828125
v -98.15573883056641 200.58476257324219 -500
v -68.75 -387.5 -335.5848388671875
v -1.69986462593079 -387.5 -173.71150207519531
v 98.59251403808594 -200.58476257324219 0
v 73.08484649658203 -200.58476257324219 193.75
v -1.69986462593079 -200.58476257324219 374.2962646484375
v -1.69986462593079 -200.58476257324219 -374.2962646484375
v 73.08484649658203 -200.58476257324219 -193.75
v 125 0 0
v 98.59251403808594 0 200.58476257324219
v 21.16968727111816 0 387.5
v 21.16968727111816 0 -387.5
v 98.59251403808594 0 -200.58476257324219
v 98.59251403808594 200.58476257324219 0
v 73.08484649658203 200.58476257324219 193.75
v -1.69986462593079 200.58476257324219 374.2962646484375
v -1.69986462593079 200.58476257324219 -374.2962646484375
v 73.08484649658203 200.58476257324219 -193.75
v 21.16968727111816 387.5 0
v -1.69986462593079 387.5 173.71150207519531
v -68.75 387.5 335.5848388671875
v -143.50901794433594 500 292.42269897460938
v -98.15573883056641 200.58476257324219 500
v -68.75 387.5 -335.5848388671875
v -1.69986462593079 387.5 -173.71150207519531
v -361.32485961914062 -428.3365478515625 -500
v -143.50901794433594 500 -292.42269897460938
v -85.08272552490234 -500 -151.36912536621094
v -208.52809143066406 387.5 -500
v -208.52809143066406 -387.5 500
v -236.45184326171875 500 413.54815673828125
v -65.15459442138672 500 0
v -65.15459442138672 0 -500
v -85.08272552490234 500 151.36912536621094
v -143.50901794433594 -500 -292.42269897460938
v -279.0496826171875 362.5 -500
v -388.81951904296875 -500 452.37786865234375
v -500 -500 500
v -280.63504028320312 500 369.36495971679688
v -144.74441528320312 500 -129.92825317382812
v -349.11810302734375 500 -500
v -500 500 -500
v -333.33334350585938 -487.36904907226562 -500
v -65.15459442138672 -500 0.00000000000007
v -91.41916656494141 -500 166.66667175292969
# 118 vertices

vn -0.865962266922 0.50010931491852 0
vn -0.79335337877274 0.60876142978668 0
vn -0.75782358646393 0.61753618717194 -0.21060042083263
vn -0.83282339572906 0.50486934185028 -0.22696289420128
vn 0.93299454450607 0.25888922810555 -0.24999512732029
vn 0.83645534515381 0.50010931491852 -0.2241275459528
vn 0.865962266922 0.50010931491852 -0.00000000567225
vn 0.96590703725815 0.25888922810555 -0.00000000378722
vn -0.74526935815811 0.50326257944107 -0.43737897276878
vn -0.67734891176224 0.61648857593536 -0.40142279863358
vn -0.53604245185852 0.60839277505875 -0.58524930477142
vn -0.61181980371475 0.49879884719849 -0.61390250921249
vn 0.44108858704567 0.89746356010437 -0.00000000208245
vn 0.42605888843536 0.89746356010437 -0.11416213214397
vn 0.74511522054672 0.49843445420265 -0.44313246011734
vn 0.38474211096764 0.89406597614288 -0.22938948869705
vn -0.40081506967545 0.60875451564789 -0.68466436862946
vn -0.42927107214928 0.6083225607872 -0.66758525371552
vn 0 0 0
vn -0.52829122543335 0.49689066410065 -0.68848240375519
vn 0.41266691684723 0.35705408453941 -0.8379847407341
vn 0.83235365152359 0.26467597484589 -0.48696407675743
vn 0.42168542742729 0.14921002089977 -0.8943812251091
vn 0.31237423419952 0.89452642202377 0.31975746154785
vn 0.38292169570923 0.89512467384338 0.22830426692963
vn 0 1 0
vn -0.31318724155426 0.60604512691498 -0.73117917776108
vn 0 -1 0
vn 0.43821352720261 -0.89886748790741 0.00249079824425
vn 0.41384819149971 -0.90220016241074 0.12150926887989
vn -0.38926100730896 0.61915409564972 0.68200010061264
vn -0.42164668440819 0.61538916826248 0.66596567630768
vn -0.31380048394203 0.60723179578781 0.72993063926697
vn -0.52859050035477 0.61555308103561 0.58453947305679
vn 0.42605888843536 -0.89746356010437 -0.11416211724281
vn -0.61198598146439 0.49888998270035 0.61366277933121
vn -0.52829122543335 0.49689063429832 0.68848240375519
vn -0.68713676929474 0.61001336574554 0.39462220668793
vn -0.74994599819183 0.49970689415932 0.43344432115555
vn 0.37273064255714 -0.89789658784866 0.23420850932598
vn 0.30552929639816 -0.89147627353668 0.33454725146294
vn 0.12973017990589 0.69765001535416 -0.70459532737732
vn 0.31411251425743 0.89348590373993 -0.32096156477928
vn -0.76609969139099 0.60976761579514 0.20316176116467
vn -0.83640772104263 0.50067156553268 0.22304740548134
vn 0.74477565288544 0.49913808703423 0.44291126728058
vn 0.83645534515381 0.50010931491852 0.22412751615047
vn 0.42605888843536 0.89746356010437 0.11416213214397
vn -0.96590703725815 0.25888922810555 0.00000000757443
vn -0.93299454450607 0.25888922810555 -0.24999511241913
vn -0.83443683385849 0.25956988334656 -0.48614677786827
vn -0.70110702514648 0.30127361416817 -0.64628404378891
vn 0.05084798485041 -0.98915028572083 -0.13782657682896
vn 0.14906397461891 -0.65667283535004 -0.73929744958878
vn 0.31836828589439 -0.88256788253784 -0.34599941968918
vn 0.01360606960952 -0.99859535694122 -0.05120760574937
vn 0 0 -1
vn 0.41317483782768 -0.35576093196869 -0.83828437328339
vn 0.41224530339241 0.35762995481491 0.83794671297073
vn 0.12973017990589 0.69765001535416 0.70459532737732
vn 0 0 1
vn -0.70232856273651 0.30058178305626 0.645279109478
vn -0.83515882492065 0.25897064805031 0.48522570729256
vn -0.93299454450607 0.25888922810555 0.24999512732029
vn -1 0 -0.00000000378931
vn -0.96592581272125 -0.00000000757862 -0.25881907343864
vn -0.86426639556885 0.00066693901317 -0.50303393602371
vn -0.78898984193802 0.00132242089603 -0.61440479755402
vn 0.44041976332664 0.00000000834236 -0.89779198169708
vn 0.86602538824081 0.00000000378931 -0.50000005960464
vn -0.86426639556885 -0.00066694658017 0.50303393602371
vn -0.78898984193802 -0.00132242089603 0.61440479755402
vn -0.96592581272125 -0.00000000378931 0.25881904363632
vn -0.96590703725815 -0.25888922810555 -0.00000000189361
vn -0.93299454450607 -0.25888925790787 -0.24999512732029
vn -0.83515882492065 -0.25897067785263 -0.48522567749023
vn -0.70232850313187 -0.30058178305626 -0.64527916908264
vn 0.04605854302645 -0.1074443385005 0.99314367771149
vn 0.14110153913498 -0.7173678278923 0.68225634098053
vn 0.40496519207954 -0.36589539051056 0.83792823553085
vn 0.01013834029436 -0.03793429583311 0.99922877550125
vn 0.07442788779736 -0.98208332061768 -0.17312654852867
vn -0.83443683385849 -0.25956991314888 0.48614671826363
vn -0.70110708475113 -0.30127364397049 0.64628398418427
vn 0.38474211096764 -0.89406597614288 -0.22938947379589
vn -0.93299454450607 -0.25888922810555 0.24999511241913
vn -0.86596232652664 -0.50010925531387 -0.00000000567225
vn -0.83645534515381 -0.50010931491852 -0.22412751615047
vn -0.74982362985611 -0.49903240799904 -0.4344319999218
vn -0.61198598146439 -0.49888998270035 -0.61366277933121
vn -0.52829122543335 -0.49689063429832 -0.68848240375519
vn 0.44041976332664 -0.00000000834236 0.89779198169708
vn 0.42216649651527 0.1475360840559 0.8944319486618
vn 0.42168542742729 -0.14921002089977 0.8943812251091
vn -0.58737194538116 -0.52156555652618 0.61884045600891
vn -0.52829122543335 -0.49689066410065 0.68848240375519
vn -0.74982708692551 -0.49964898824692 0.43371671438217
vn -0.83640772104263 -0.50067150592804 0.2230474203825
vn -0.76632052659988 -0.60876142978668 -0.20533494651318
vn -0.79335337877274 -0.60876142978668 -0.00000001498222
vn -0.68706411123276 -0.60876142978668 -0.39667668938637
vn -0.52859055995941 -0.61555308103561 -0.58453953266144
vn -0.42164668440819 -0.61538916826248 -0.66596567630768
vn -0.38926100730896 -0.61915409564972 -0.68200010061264
vn -0.31380048394203 -0.60723179578781 -0.72993063926697
vn 0.83272075653076 0.26314383745193 0.48716673254967
vn -0.32291546463966 -0.57216614484787 0.75389093160629
vn -0.43266957998276 -0.59717524051666 0.67541003227234
vn -0.40585276484489 -0.59194928407669 0.6963329911232
vn -0.56098556518555 -0.60876142978668 0.5609855055809
vn -0.68713676929474 -0.61001336574554 0.39462220668793
vn -0.76609969139099 -0.60976761579514 0.20316176116467
vn 0.96592581272125 0 -0.25881904363632
vn 0.86442852020264 -0.50275063514709 0.00226587150246
vn 0.82878404855728 -0.50930911302567 0.231778383255
vn 0.73637557029724 -0.5062854886055 0.4488051533699
vn 0.74580383300781 -0.4970540702343 -0.44352442026138
vn 0.83645534515381 -0.50010931491852 -0.22412751615047
vn 0.96590703725815 -0.25888922810555 0.00000000378722
vn 0.93299454450607 -0.25888922810555 0.24999511241913
vn 0.83235365152359 -0.26467597484589 0.48696407675743
vn 0.42216649651527 -0.1475360840559 -0.8944319486618
vn 1 0 0
vn 0.07177864015102 -0.1388980448246 0.98770195245743
vn 0.83272075653076 -0.26314383745193 -0.48716673254967
vn 0.93299454450607 -0.25888922810555 -0.24999511241913
vn 0.96592581272125 0 0.25881904363632
vn 0.86602538824081 -0.00000000757862 0.50000005960464
vn 0.93299454450607 0.25888922810555 0.24999511241913
# 129 normals

o 5nm_thick
usemtl default
f 1//1 39//2 65//3 2//4
f 91//5 98//6 92//7 87//8
f 3//9 2//4 65//3 56//10
f 35//11 4//12 3//9 56//10
f 105//13 92//7 98//6 57//14
f 98//6 97//15 100//16 57//14
f 35//11 110//17 45//18 32//20 4//12
f 102//21 97//15 90//22 74//23
f 104//24 95//25 43//26 112//26
f 111//27 45//18 110//17
f 39//28 117//29 118//30 65//28
f 68//31 99//32 36//33
f 5//36 31//37 99//32 68//31 63//34
f 117//29 39//28 42//28 101//35
f 5//36 63//34 44//38 6//39
f 35//28 56//28 55//40 40//41
f 114//42 49//43 102//21
f 6//39 44//38 42//44 7//45
f 95//25 94//46 93//47 107//48
f 1//1 7//45 42//44 39//2
f 8//49 1//1 2//4 9//50
f 9//50 2//4 3//9 10//51
f 10//51 3//9 4//12 60//52
f 68//53 116//54 73//55 63//56
f 116//54 99//57 31//57 62//58
f 60//52 4//12 32//20
f 52//59 53//60 47//61 33//61
f 54//62 31//37 5//36
f 90//22 97//15 98//6 91//5
f 54//62 5//36 6//39 11//63
f 11//63 6//39 7//45 12//64
f 12//64 7//45 1//1 8//49
f 13//65 8//49 9//50 14//66
f 14//66 9//50 10//51 15//67
f 30//68 15//67 10//51 60//52
f 47//61 53//60 48//61
f 106//69 37//57 58//57 74//23
f 85//70 106//69 74//23 90//22
f 16//71 37//72 54//62 11//63
f 104//24 52//59 94//46 95//25
f 16//71 11//63 12//64 17//73
f 17//73 12//64 8//49 13//65
f 18//74 13//65 14//66 19//75
f 19//75 14//66 15//67 20//76
f 15//67 30//68 50//77 20//76
f 52//59 104//24 53//60
f 45//78 69//79 103//80 32//81
f 36//82 116//54 68//53
f 37//72 16//71 21//83 58//84
f 44//28 63//56 73//55 108//85
f 21//83 16//71 17//73 22//86
f 22//86 17//73 13//65 18//74
f 23//87 18//74 19//75 24//88
f 24//88 19//75 20//76 25//89
f 25//89 20//76 50//77 26//90
f 50//77 33//91 26//90
f 64//92 96//93 50//61 30//61
f 43//26 95//25 107//48 51//26
f 66//94 64//92 30//61 60//61
f 27//95 109//96 58//84
f 60//61 32//81 103//80 66//94
f 27//95 58//84 21//83 28//97
f 28//97 21//83 22//86 29//98
f 29//98 22//86 18//74 23//87
f 23//87 24//88 51//99 38//100
f 105//13 38//26 51//26 107//48
f 25//89 43//101 51//99 24//88
f 112//102 43//101 25//89 26//90
f 38//26 105//13 57//14 113//26
f 57//14 100//16 67//26 113//26
f 26//90 33//91 47//103 41//104 112//102
f 67//26 100//16 49//43 34//26
f 50//61 96//93 52//59 33//61
f 41//104 47//103 48//105
f 96//93 89//106 94//46 52//59
f 115//107 46//108 61//109
f 61//26 114//42 115//26
f 109//96 27//95 34//110 61//109 46//19
f 61//26 34//26 49//43 114//42
f 67//111 34//110 27//95 28//97
f 109//57 102//21 74//23 58//57
f 28//97 29//98 113//112 67//111
f 114//42 46//57 115//57
f 113//112 29//98 23//87 38//100
f 85//70 90//22 91//5 86//113
f 117//29 70//114 71//115 118//30
f 56//28 65//28 118//30 55//40
f 71//115 72//116 55//40 118//30
f 93//47 92//7 105//13 107//48
f 72//116 103//80 40//41 55//40
f 69//79 40//41 103//80
f 40//41 69//79 110//28 35//28
f 62//58 73//55 116//54
f 53//60 41//26 48//26
f 102//21 49//43 100//16 97//15
f 62//58 75//117 108//85 73//55
f 101//35 108//85 75//117 76//118
f 99//57 116//54 36//57
f 76//118 70//114 117//29 101//35
f 70//114 77//119 78//120 71//115
f 71//115 78//120 79//121 72//116
f 62//58 31//57 54//57 59//122
f 103//80 72//116 79//121 66//94
f 54//57 37//57 106//69 59//122
f 86//113 91//5 87//8 82//123
f 101//35 42//28 44//28 108//85
f 46//57 114//42 102//21 109//57
f 111//124 69//79 45//78
f 59//122 80//125 75//117 62//58
f 75//117 80//125 81//126 76//118
f 76//118 81//126 77//119 70//114
f 77//119 82//123 83//127 78//120
f 78//120 83//127 84//128 79//121
f 87//8 92//7 93//47 88//129
f 84//128 64//92 66//94 79//121
f 106//69 85//70 80//125 59//122
f 88//129 93//47 94//46 89//106
f 80//125 85//70 86//113 81//126
f 81//126 86//113 82//123 77//119
f 82//123 87//8 88//129 83//127
f 83//127 88//129 89//106 84//128
f 64//92 84//128 89//106 96//93
f 41//26 53//60 104//24 112//26
f 110//28 69//79 111//28

